<svg xmlns="http://www.w3.org/2000/svg" width="512" height="512" viewBox="0 0 512 512">
  <rect width="512" height="512" fill="#ffffff"/>

  <polygon points="78,388 236,512 78,512" fill="#e2b700"/>

  <g fill="#1d3f8f">
    <rect x="96" y="58" width="54" height="54" rx="6"/>
    <rect x="162" y="42" width="54" height="54" rx="6"/>
    <rect x="216" y="88" width="54" height="54" rx="6"/>
    <rect x="132" y="122" width="54" height="54" rx="6"/>
  </g>

  <polygon points="132,82 276,82 206,456 62,456" fill="#1d3f8f"/>
  <polygon points="180,82 316,82 246,456 110,456" fill="#1d3f8f"/>

  <path d="M395 90 C505 90 505 210 418 242 C335 270 340 320 430 345 C518 370 515 475 392 475" stroke="#1d3f8f" stroke-width="104" fill="none" stroke-linecap="round" stroke-linejoin="round"/>
  <path d="M395 90 C505 90 505 210 418 242 C335 270 340 320 430 345 C518 370 515 475 392 475" stroke="#ffffff" stroke-width="34" fill="none" stroke-linecap="round" stroke-linejoin="round"/>
</svg>
